#!OML:ASF E:\Steps\Project 1\Capture day 1\Session 2\Subject.ASF
:FULLY-SPECIFIED
:DEGREES
431
root 3.85164 17.1346 16.6238 -155.441 -4.83952 178.845
lowerback -28.342 -1.68378 -4.94731
upperback -2.73761 -1.44832 0.188008
thorax 12.7805 -1.25604 2.44857
lowerneck -0.248553 -2.84476 -1.70334
upperneck -1.09992 -3.79522 0.799962
head -0.244192 -1.89724 0.522622
rclavicle -4.74598e-015 -6.36111e-015
rhumerus -35.4925 -17.9353 -78.1685
rradius 31.8797
rwrist -1.28546
rhand -7.74077 -53.6177
rfingers 7.12502
rthumb 18.1583 277.21
lclavicle -4.74598e-015 -6.36111e-015
lhumerus -30.8639 -1.94768 82.3558
lradius 26.47
lwrist -1.67389
lhand -20.5982 -12.2644
lfingers 7.12502
lthumb 5.76225 17.6373
rfemur -24.6005 4.69309 21.6403
rtibia 9.86933
rfoot -18.6608 1.25707
rtoes 0.436764
lfemur -24.401 -7.31493 -21.6556
ltibia 9.97338
lfoot -8.49883 -2.43988
ltoes -41.3892
432
root 3.85039 17.1335 16.6187 -155.391 -4.91905 178.911
lowerback -28.4957 -1.66172 -4.88781
upperback -2.76868 -1.44017 0.183142
thorax 12.8225 -1.25347 2.40882
lowerneck -0.143459 -2.81053 -1.7806
upperneck -1.20033 -3.7501 0.940296
head -0.288408 -1.87471 0.581122
rclavicle -1.53064e-014 -3.97569e-015
rhumerus -35.5837 -18.0313 -78.1107
rradius 31.7821
rwrist -1.22008
rhand -7.53295 -53.6708
rfingers 7.12502
rthumb 18.3582 277.175
lclavicle -1.53064e-014 -3.97569e-015
lhumerus -30.7958 -1.91214 82.2553
lradius 26.3281
lwrist -1.58753
lhand -20.7475 -12.5802
lfingers 7.12502
lthumb 5.61815 17.3253
rfemur -24.6263 4.66991 21.7402
rtibia 9.8773
rfoot -18.8344 1.26188
rtoes 1.01466
lfemur -24.4108 -7.40359 -21.5622
ltibia 9.91573
lfoot -8.51391 -2.33699
ltoes -41.6012
433
root 3.85002 17.1316 16.6157 -155.344 -4.97388 178.944
lowerback -28.6497 -1.66294 -4.89666
upperback -2.74795 -1.43421 0.207853
thorax 12.9283 -1.25478 2.44186
lowerneck -0.474868 -2.93167 -1.61521
upperneck -1.0897 -3.91028 0.670107
head -0.207008 -1.95524 0.464531
rclavicle -1.15792e-014 -1.64991e-014
rhumerus -35.4933 -18.1087 -78.0136
rradius 31.5945
rwrist -1.20146
rhand -7.36561 -53.9539
rfingers 7.12502
rthumb 18.5192 276.908
lclavicle -1.15792e-014 -1.64991e-014
lhumerus -30.581 -1.60076 82.1476
lradius 26.0396
lwrist -1.70824
lhand -20.984 -13.0891
lfingers 7.12502
lthumb 5.3898 16.8224
rfemur -24.6575 4.62682 21.8036
rtibia 9.87798
rfoot -18.7855 1.28276
rtoes 1.48579
lfemur -24.4445 -7.55737 -21.4881
ltibia 9.886
lfoot -8.57129 -2.25021
ltoes -41.7725
434
root 3.85268 17.131 16.6111 -155.353 -5.04632 178.927
lowerback -28.7434 -1.71895 -4.9944
upperback -2.69034 -1.46719 0.247525
thorax 13.0516 -1.27659 2.52951
lowerneck -0.695777 -2.97591 -1.66373
upperneck -1.24132 -3.9698 0.635733
head -0.216068 -1.98573 0.459753
rclavicle -1.15792e-014 6.95746e-015
rhumerus -35.3357 -18.1999 -77.9301
rradius 31.3617
rwrist -1.12899
rhand -7.44925 -54.0203
rfingers 7.12502
rthumb 18.4387 276.834
lclavicle -1.15792e-014 6.95746e-015
lhumerus -30.4126 -1.28123 82.0783
lradius 25.8897
lwrist -1.90175
lhand -21.1942 -13.2769
lfingers 7.12502
lthumb 5.18679 16.6396
rfemur -24.577 4.44648 21.8589
rtibia 9.79951
rfoot -18.7118 1.27559
rtoes 0.816865
lfemur -24.4002 -7.6057 -21.4811
ltibia 9.85564
lfoot -8.544 -2.32009
ltoes -41.8687
435
root 3.85598 17.1327 16.6039 -155.446 -5.16333 178.886
lowerback -28.7567 -1.77938 -5.10816
upperback -2.64468 -1.50057 0.253685
thorax 13.1182 -1.29699 2.589
lowerneck -0.7228 -2.97374 -1.77292
upperneck -1.51234 -3.96904 0.755443
head -0.289304 -1.98595 0.516727
rclavicle -2.00524e-014 8.15017e-015
rhumerus -35.3485 -18.2968 -77.8894
rradius 31.2259
rwrist -1.05731
rhand -7.49059 -53.8261
rfingers 7.12502
rthumb 18.3989 277.024
lclavicle -2.00524e-014 8.15017e-015
lhumerus -30.4553 -1.26761 82.0447
lradius 25.9723
lwrist -1.8264
lhand -21.2893 -13.275
lfingers 7.12502
lthumb 5.095 16.6438
rfemur -24.3719 4.374 21.8586
rtibia 9.69922
rfoot -18.8285 1.15866
rtoes 0.482426
lfemur -24.2477 -7.61691 -21.5053
ltibia 9.82658
lfoot -8.49622 -2.50527
ltoes -41.7168
436
root 3.85576 17.1334 16.6014 -155.455 -5.24954 178.882
lowerback -28.7884 -1.7988 -5.12783
upperback -2.6692 -1.52383 0.256942
thorax 13.1082 -1.31011 2.5944
lowerneck -0.679968 -2.93783 -1.88904
upperneck -1.68211 -3.92327 0.819934
head -0.345012 -1.96315 0.558319
rclavicle -4.89507e-015 1.07344e-014
rhumerus -35.4813 -18.3623 -77.8263
rradius 31.1518
rwrist -0.921669
rhand -7.29139 -53.8983
rfingers 7.12502
rthumb 18.5906 276.97
lclavicle -4.89507e-015 1.07344e-014
lhumerus -30.5561 -1.21604 82.0084
lradius 26.0066
lwrist -1.77005
lhand -21.1756 -13.1584
lfingers 7.12502
lthumb 5.20478 16.7577
rfemur -24.3458 4.37602 21.852
rtibia 9.69454
rfoot -18.9173 1.08741
rtoes 0.517616
lfemur -24.2359 -7.66261 -21.4834
ltibia 9.8234
lfoot -8.36785 -2.62066
ltoes -41.3172
437
root 3.85596 17.1328 16.6006 -155.399 -5.27618 178.91
lowerback -28.8393 -1.77738 -5.10664
upperback -2.72767 -1.51204 0.247132
thorax 13.0636 -1.30635 2.57453
lowerneck -0.653481 -2.92397 -1.93168
upperneck -1.69139 -3.90615 0.768163
head -0.352621 -1.95426 0.550125
rclavicle 1.30204e-014 2.56432e-014
rhumerus -35.6204 -18.4644 -77.7615
rradius 31.0558
rwrist -0.841742
rhand -7.32369 -54.0434
rfingers 7.12502
rthumb 18.5595 276.822
lclavicle 1.30204e-014 2.56432e-014
lhumerus -30.5045 -0.790823 81.8009
lradius 25.9644
lwrist -2.89208
lhand -20.4952 -11.846
lfingers 7.12502
lthumb 5.86174 18.0529
rfemur -24.4253 4.4601 21.858
rtibia 9.68976
rfoot -18.8101 0.963256
rtoes 0.320524
lfemur -24.3302 -7.68107 -21.4239
ltibia 9.87033
lfoot -8.31322 -2.62054
ltoes -40.9645
